<svg xmlns="http://www.w3.org/2000/svg" width="18" height="20" viewBox="0 0 18 20"><g><g><g/><g><path d="M16.145 0a1.1 1.1 0 0 1 1.099 1.099V18.9a1.1 1.1 0 0 1-1.1 1.099H1.86A1.1 1.1 0 0 1 .76 18.901V1.1A1.1 1.1 0 0 1 1.859 0zM5.76 16.044a.495.495 0 0 0-.495-.494H3.507a.495.495 0 0 0-.494.494v1.813c0 .273.222.495.494.495h1.758a.495.495 0 0 0 .495-.495zm0-4.176a.495.495 0 0 0-.495-.494H3.507a.495.495 0 0 0-.494.494v1.813c0 .273.222.495.494.495h1.758a.495.495 0 0 0 .495-.495zm0-4.176a.495.495 0 0 0-.495-.494H3.507a.495.495 0 0 0-.494.494v1.813c0 .273.222.495.494.495h1.758a.495.495 0 0 0 .495-.495zm4.725 8.352a.495.495 0 0 0-.494-.494H8.233a.495.495 0 0 0-.495.494v1.813c0 .273.222.495.495.495H9.99a.495.495 0 0 0 .494-.495zm0-4.176a.495.495 0 0 0-.494-.494H8.233a.495.495 0 0 0-.495.494v1.813c0 .273.222.495.495.495H9.99a.495.495 0 0 0 .494-.495zm0-4.176a.495.495 0 0 0-.494-.494H8.233a.495.495 0 0 0-.495.494v1.813c0 .273.222.495.495.495H9.99a.495.495 0 0 0 .494-.495zm4.67 4.176a.495.495 0 0 0-.494-.494h-1.758a.495.495 0 0 0-.495.494v5.99c0 .272.222.494.495.494h1.758a.495.495 0 0 0 .495-.495zm0-4.176a.495.495 0 0 0-.494-.494h-1.758a.495.495 0 0 0-.495.494v1.813c0 .273.222.495.495.495h1.758a.495.495 0 0 0 .495-.495zm.22-5.165a.55.55 0 0 0-.55-.549H3.234a.55.55 0 0 0-.55.55V4.89c0 .304.246.55.55.55h11.593a.55.55 0 0 0 .55-.55z"/></g></g></g></svg>