<svg xmlns="http://www.w3.org/2000/svg" width="21" height="20" viewBox="0 0 21 20"><g><g><g/><g><g><g><path d="M21.095 10c0 5.514-4.572 10-10.192 10S.71 15.514.71 10 5.282 0 10.902 0s10.193 4.486 10.193 10zm-2.169 0c0-4.34-3.6-7.872-8.023-7.872-4.425 0-8.024 3.531-8.024 7.872 0 4.34 3.6 7.872 8.024 7.872 4.424 0 8.023-3.531 8.023-7.872z"/></g><g><path d="M16.209 9.687h-4.58V4.283a.831.831 0 0 0-.84-.823.831.831 0 0 0-.839.823v6.227c0 .455.376.824.84.824h5.419c.463 0 .84-.37.84-.824a.831.831 0 0 0-.84-.823z"/></g></g></g></g></g></svg>