<svg xmlns="http://www.w3.org/2000/svg" width="20" height="16" viewBox="0 0 20 16"><g><g><g/><g><g><path d="M19.688 3.872c-.305.656-.824 1.126-1.428 1.291a43.008 43.008 0 0 1-1.323 2.181 3.96 3.96 0 0 1-.08.964c-.26 1.211-1.238 2.266-2.496 2.69-.49.635-.959 1.208-1.394 1.703-1.62 1.845-2.19 1.95-2.378 1.986a.742.742 0 0 1-.566-.11c-.496-.344-.293-1.075-.216-1.35.124-.446.362-1.029.706-1.733.163-.332.349-.691.553-1.067a1.72 1.72 0 0 0-.521-.083c-.602 0-1.019.355-1.113.951-.042.26-.016.518.012.791.026.266.053.54.013.814-.068.464-.229.926-.48 1.372-.657 1.174-1.757 1.847-3.015 1.847a3.99 3.99 0 0 1-1.536-.32C2.35 14.933.812 12.918.21 10.27a8.665 8.665 0 0 1-.115-.605c-.37-2.409.352-4.878 1.98-6.775C3.71.984 6.053-.11 8.5-.11a8.588 8.588 0 0 1 7.058 3.763l.017-.02c-.156-.632.155-1.297.835-1.785.481-.345.926-.504 1.356-.657.534-.19.994-.354 1.345-.846a.278.278 0 0 1 .485.06c.505 1.277.538 2.508.092 3.467zm-6.74.176a1.18 1.18 0 0 0-1.154-.922c-.41 0-.784.207-1.002.553a1.177 1.177 0 0 0-.153.894 1.18 1.18 0 0 0 2.157.369c.169-.268.223-.585.153-.894zm-1.335 7.546c-.373.73-.64 1.345-.781 1.794.363-.294.835-.768 1.374-1.382.964-1.1 2.094-2.586 3.18-4.186a46.662 46.662 0 0 0 1.715-2.703 2.495 2.495 0 0 1-.61-.313 3.249 3.249 0 0 1-.324-.256 52.803 52.803 0 0 0-1.834 2.54c-1.087 1.6-2.053 3.201-2.72 4.506zm-6.79-5.067a1.186 1.186 0 0 0-1-1.816c-.41 0-.786.207-1.004.553a1.177 1.177 0 0 0-.153.894 1.18 1.18 0 0 0 2.157.369zm-2.398 4.055a1.181 1.181 0 0 0 2.157.369c.17-.268.224-.586.153-.894a1.181 1.181 0 0 0-2.157-.369 1.178 1.178 0 0 0-.153.894zM6.22 3.547a1.18 1.18 0 0 0 1.154.922 1.186 1.186 0 1 0 .002-2.37c-.41.001-.785.208-1.003.555a1.176 1.176 0 0 0-.153.893z"/></g></g></g></g></svg>